<svg width="1440" height="64" viewBox="0 0 1440 64" fill="none" xmlns="http://www.w3.org/2000/svg">
<path d="M-5.81636 56C-5.81636 48.646 -2.55991 41.3639 3.76707 34.5697C10.094 27.7755 19.3676 21.6021 31.0584 16.402C42.7491 11.2019 56.628 7.07701 71.9027 4.26274C87.1774 1.44848 103.549 -9.64364e-07 120.082 0C136.615 9.64364e-07 152.986 1.44848 168.261 4.26275C183.536 7.07701 197.415 11.2019 209.105 16.402C220.796 21.6021 230.07 27.7755 236.397 34.5697C242.724 41.364 245.98 48.646 245.98 56L-5.81636 56Z" fill="#181418"/>
<path d="M232.551 56C232.551 48.646 235.807 41.3639 242.134 34.5697C248.461 27.7755 257.735 21.6021 269.426 16.402C281.116 11.2019 294.995 7.07701 310.27 4.26274C325.545 1.44848 341.916 -9.64364e-07 358.449 0C374.982 9.64364e-07 391.354 1.44848 406.628 4.26275C421.903 7.07701 435.782 11.2019 447.473 16.402C459.163 21.6021 468.437 27.7755 474.764 34.5697C481.091 41.364 484.347 48.646 484.347 56L232.551 56Z" fill="#181418"/>
<path d="M470.918 56C470.918 48.646 474.175 41.3639 480.502 34.5697C486.829 27.7755 496.102 21.6021 507.793 16.402C519.484 11.2019 533.363 7.07701 548.637 4.26274C563.912 1.44848 580.283 -9.64364e-07 596.816 0C613.35 9.64364e-07 629.721 1.44848 644.996 4.26275C660.27 7.07701 674.149 11.2019 685.84 16.402C697.531 21.6021 706.804 27.7755 713.131 34.5697C719.458 41.364 722.715 48.646 722.715 56L470.918 56Z" fill="#181418"/>
<path d="M-125 64C-125 56.646 -121.744 49.3639 -115.417 42.5697C-109.09 35.7755 -99.816 29.6021 -88.1253 24.402C-76.4345 19.2019 -62.5556 15.077 -47.2809 12.2627C-32.0063 9.44848 -15.635 8 0.898219 8C17.4314 8 33.8027 9.44848 49.0774 12.2627C64.352 15.077 78.2309 19.2019 89.9217 24.402C101.612 29.6021 110.886 35.7755 117.213 42.5697C123.54 49.364 126.796 56.646 126.796 64L-125 64Z" fill="#231D24"/>
<path d="M113.367 64C113.367 56.646 116.624 49.3639 122.951 42.5697C129.278 35.7755 138.551 29.6021 150.242 24.402C161.933 19.2019 175.812 15.077 191.086 12.2627C206.361 9.44848 222.732 8 239.266 8C255.799 8 272.17 9.44848 287.445 12.2627C302.719 15.077 316.598 19.2019 328.289 24.402C339.98 29.6021 349.253 35.7755 355.58 42.5697C361.907 49.364 365.164 56.646 365.164 64L113.367 64Z" fill="#231D24"/>
<path d="M351.735 64C351.735 56.646 354.991 49.3639 361.318 42.5697C367.645 35.7755 376.919 29.6021 388.609 24.402C400.3 19.2019 414.179 15.077 429.454 12.2627C444.728 9.44848 461.1 8 477.633 8C494.166 8 510.537 9.44848 525.812 12.2627C541.087 15.077 554.966 19.2019 566.656 24.402C578.347 29.6021 587.621 35.7755 593.948 42.5697C600.274 49.364 603.531 56.646 603.531 64L351.735 64Z" fill="#231D24"/>
<path d="M590.102 64C590.102 56.646 593.358 49.3639 599.685 42.5697C606.012 35.7755 615.286 29.6021 626.977 24.402C638.667 19.2019 652.546 15.077 667.821 12.2627C683.096 9.44848 699.467 8 716 8C732.533 8 748.904 9.44848 764.179 12.2627C779.454 15.077 793.333 19.2019 805.024 24.402C816.714 29.6021 825.988 35.7755 832.315 42.5697C838.642 49.364 841.898 56.646 841.898 64L590.102 64Z" fill="#231D24"/>
<path d="M709.285 56C709.285 48.646 712.542 41.3639 718.869 34.5697C725.196 27.7755 734.469 21.6021 746.16 16.402C757.851 11.2019 771.73 7.07701 787.005 4.26274C802.279 1.44848 818.65 -9.64364e-07 835.184 0C851.717 9.64364e-07 868.088 1.44848 883.363 4.26275C898.637 7.07701 912.516 11.2019 924.207 16.402C935.898 21.6021 945.171 27.7755 951.498 34.5697C957.825 41.364 961.082 48.646 961.082 56L709.285 56Z" fill="#181418"/>
<path d="M947.653 56C947.653 48.646 950.909 41.3639 957.236 34.5697C963.563 27.7755 972.837 21.6021 984.527 16.402C996.218 11.2019 1010.1 7.07701 1025.37 4.26274C1040.65 1.44848 1057.02 -9.64364e-07 1073.55 0C1090.08 9.64364e-07 1106.46 1.44848 1121.73 4.26275C1137 7.07701 1150.88 11.2019 1162.57 16.402C1174.27 21.6021 1183.54 27.7755 1189.87 34.5697C1196.19 41.364 1199.45 48.646 1199.45 56L947.653 56Z" fill="#181418"/>
<path d="M1186.02 56C1186.02 48.646 1189.28 41.3639 1195.6 34.5697C1201.93 27.7755 1211.2 21.6021 1222.89 16.402C1234.59 11.2019 1248.46 7.07701 1263.74 4.26274C1279.01 1.44848 1295.39 -9.64364e-07 1311.92 0C1328.45 9.64364e-07 1344.82 1.44848 1360.1 4.26275C1375.37 7.07701 1389.25 11.2019 1400.94 16.402C1412.63 21.6021 1421.91 27.7755 1428.23 34.5697C1434.56 41.364 1437.82 48.646 1437.82 56L1186.02 56Z" fill="#181418"/>
<path d="M590.102 64C590.102 56.646 593.358 49.3639 599.685 42.5697C606.012 35.7755 615.286 29.6021 626.977 24.402C638.667 19.2019 652.546 15.077 667.821 12.2627C683.096 9.44848 699.467 8 716 8C732.533 8 748.904 9.44848 764.179 12.2627C779.454 15.077 793.333 19.2019 805.024 24.402C816.714 29.6021 825.988 35.7755 832.315 42.5697C838.642 49.364 841.898 56.646 841.898 64L590.102 64Z" fill="#231D24"/>
<path d="M828.469 64C828.469 56.646 831.726 49.3639 838.053 42.5697C844.38 35.7755 853.653 29.6021 865.344 24.402C877.035 19.2019 890.913 15.077 906.188 12.2627C921.463 9.44848 937.834 8 954.367 8C970.9 8 987.272 9.44848 1002.55 12.2627C1017.82 15.077 1031.7 19.2019 1043.39 24.402C1055.08 29.6021 1064.36 35.7755 1070.68 42.5697C1077.01 49.364 1080.27 56.646 1080.27 64L828.469 64Z" fill="#231D24"/>
<path d="M1066.84 64C1066.84 56.646 1070.09 49.3639 1076.42 42.5697C1082.75 35.7755 1092.02 29.6021 1103.71 24.402C1115.4 19.2019 1129.28 15.077 1144.56 12.2627C1159.83 9.44848 1176.2 8 1192.73 8C1209.27 8 1225.64 9.44848 1240.91 12.2627C1256.19 15.077 1270.07 19.2019 1281.76 24.402C1293.45 29.6021 1302.72 35.7755 1309.05 42.5697C1315.38 49.364 1318.63 56.646 1318.63 64L1066.84 64Z" fill="#231D24"/>
<path d="M1305.2 64C1305.2 56.646 1308.46 49.3639 1314.79 42.5697C1321.11 35.7755 1330.39 29.6021 1342.08 24.402C1353.77 19.2019 1367.65 15.077 1382.92 12.2627C1398.2 9.44848 1414.57 8 1431.1 8C1447.64 8 1464.01 9.44848 1479.28 12.2627C1494.56 15.077 1508.43 19.2019 1520.13 24.402C1531.82 29.6021 1541.09 35.7755 1547.42 42.5697C1553.74 49.364 1557 56.646 1557 64L1305.2 64Z" fill="#231D24"/>
</svg>
